<svg width="32" height="32" viewBox="0 0 32 32" fill="none" xmlns="http://www.w3.org/2000/svg">
<g clip-path="url(#clip0_81_6207)">
<path d="M17.3333 32H15.2413C15.033 32.0001 14.8276 31.9513 14.6415 31.8576C14.4554 31.764 14.2939 31.628 14.1698 31.4607C14.0458 31.2933 13.9627 31.0992 13.9271 30.894C13.8916 30.6887 13.9047 30.478 13.9653 30.2787C14.3471 29.1082 14.5827 27.895 14.6667 26.6667C14.6667 25.9594 14.3857 25.2811 13.8856 24.781C13.3855 24.281 12.7072 24 12 24C11.2928 24 10.6145 24.281 10.1144 24.781C9.61429 25.2811 9.33333 25.9594 9.33333 26.6667C9.41732 27.895 9.65289 29.1082 10.0347 30.2787C10.0953 30.478 10.1084 30.6887 10.0729 30.894C10.0373 31.0992 9.95422 31.2933 9.83017 31.4607C9.70611 31.628 9.54457 31.764 9.35849 31.8576C9.17242 31.9513 8.96698 32.0001 8.75867 32H6.66667C4.89921 31.9979 3.20474 31.2948 1.95496 30.045C0.705176 28.7953 0.00211714 27.1008 0 25.3333L0 14.6667C0.00211714 12.8992 0.705176 11.2047 1.95496 9.95496C3.20474 8.70518 4.89921 8.00212 6.66667 8H7.02933C6.81818 7.12574 6.69666 6.23223 6.66667 5.33333C6.66667 3.91885 7.22857 2.56229 8.22876 1.5621C9.22896 0.561903 10.5855 0 12 0C13.4145 0 14.771 0.561903 15.7712 1.5621C16.7714 2.56229 17.3333 3.91885 17.3333 5.33333C17.3033 6.23223 17.1818 7.12574 16.9707 8H17.3333C19.0496 8.0002 20.6999 8.66153 21.9414 9.84664C23.1829 11.0318 23.9201 12.6495 24 14.364C24.8744 14.1531 25.7678 14.0312 26.6667 14C28.0812 14 29.4377 14.5619 30.4379 15.5621C31.4381 16.5623 32 17.9188 32 19.3333C32 20.7478 31.4381 22.1044 30.4379 23.1046C29.4377 24.1048 28.0812 24.6667 26.6667 24.6667C25.7678 24.6358 24.8744 24.5143 24 24.304V25.3333C23.9979 27.1008 23.2948 28.7953 22.045 30.045C20.7953 31.2948 19.1008 31.9979 17.3333 32ZM16.9707 29.3333H17.3333C18.3942 29.3333 19.4116 28.9119 20.1618 28.1618C20.9119 27.4116 21.3333 26.3942 21.3333 25.3333V22.5747C21.3333 22.3664 21.382 22.1609 21.4757 21.9748C21.5693 21.7888 21.7053 21.6272 21.8727 21.5032C22.04 21.3791 22.2341 21.296 22.4394 21.2605C22.6446 21.225 22.8554 21.238 23.0547 21.2987C24.2252 21.6801 25.4384 21.9157 26.6667 22C27.3739 22 28.0522 21.719 28.5523 21.219C29.0524 20.7189 29.3333 20.0406 29.3333 19.3333C29.3333 18.6261 29.0524 17.9478 28.5523 17.4477C28.0522 16.9476 27.3739 16.6667 26.6667 16.6667C25.4384 16.751 24.2252 16.9865 23.0547 17.368C22.8554 17.4286 22.6446 17.4417 22.4394 17.4062C22.2341 17.3707 22.04 17.2876 21.8727 17.1635C21.7053 17.0394 21.5693 16.8779 21.4757 16.6918C21.382 16.5058 21.3333 16.3003 21.3333 16.092V14.6667C21.3333 13.6058 20.9119 12.5884 20.1618 11.8382C19.4116 11.0881 18.3942 10.6667 17.3333 10.6667H15.2413C15.033 10.6667 14.8276 10.618 14.6415 10.5243C14.4554 10.4307 14.2939 10.2947 14.1698 10.1273C14.0458 9.96 13.9627 9.76591 13.9271 9.56064C13.8916 9.35537 13.9047 9.14464 13.9653 8.94533C14.3471 7.77485 14.5827 6.56164 14.6667 5.33333C14.6667 4.62609 14.3857 3.94781 13.8856 3.44772C13.3855 2.94762 12.7072 2.66667 12 2.66667C11.2928 2.66667 10.6145 2.94762 10.1144 3.44772C9.61429 3.94781 9.33333 4.62609 9.33333 5.33333C9.41732 6.56164 9.65289 7.77485 10.0347 8.94533C10.0953 9.14464 10.1084 9.35537 10.0729 9.56064C10.0373 9.76591 9.95422 9.96 9.83017 10.1273C9.70611 10.2947 9.54457 10.4307 9.35849 10.5243C9.17242 10.618 8.96698 10.6667 8.75867 10.6667H6.66667C5.6058 10.6667 4.58839 11.0881 3.83824 11.8382C3.08809 12.5884 2.66667 13.6058 2.66667 14.6667V25.3333C2.66667 26.3942 3.08809 27.4116 3.83824 28.1618C4.58839 28.9119 5.6058 29.3333 6.66667 29.3333H7.02933C6.81818 28.4591 6.69666 27.5656 6.66667 26.6667C6.66667 25.2522 7.22857 23.8956 8.22876 22.8954C9.22896 21.8952 10.5855 21.3333 12 21.3333C13.4145 21.3333 14.771 21.8952 15.7712 22.8954C16.7714 23.8956 17.3333 25.2522 17.3333 26.6667C17.3033 27.5656 17.1818 28.4591 16.9707 29.3333Z" fill="#9D9D9D"/>
</g>
<defs>
<clipPath id="clip0_81_6207">
<rect width="32" height="32" fill="white"/>
</clipPath>
</defs>
</svg>
