<svg width="16" height="16" viewBox="0 0 16 16" fill="none" xmlns="http://www.w3.org/2000/svg">
<g clip-path="url(#clip0_271_8557)">
<path d="M8 0C6.41775 0 4.87104 0.469192 3.55544 1.34824C2.23985 2.22729 1.21447 3.47672 0.608967 4.93853C0.00346629 6.40034 -0.15496 8.00887 0.153721 9.56072C0.462403 11.1126 1.22433 12.538 2.34315 13.6569C3.46197 14.7757 4.88743 15.5376 6.43928 15.8463C7.99113 16.155 9.59966 15.9965 11.0615 15.391C12.5233 14.7855 13.7727 13.7602 14.6518 12.4446C15.5308 11.129 16 9.58225 16 8C15.9977 5.87897 15.1541 3.84547 13.6543 2.34568C12.1545 0.845886 10.121 0.00229405 8 0ZM8 14.6667C6.68146 14.6667 5.39253 14.2757 4.2962 13.5431C3.19987 12.8106 2.34539 11.7694 1.84081 10.5512C1.33622 9.33305 1.2042 7.99261 1.46144 6.6994C1.71867 5.40619 2.35361 4.21831 3.28596 3.28596C4.21831 2.35361 5.4062 1.71867 6.6994 1.46143C7.99261 1.2042 9.33305 1.33622 10.5512 1.8408C11.7694 2.34539 12.8106 3.19987 13.5431 4.2962C14.2757 5.39253 14.6667 6.68146 14.6667 8C14.6647 9.76752 13.9617 11.4621 12.7119 12.7119C11.4621 13.9617 9.76752 14.6647 8 14.6667Z" fill="#F0F0F0"/>
<path d="M7.99967 3.33337C7.82286 3.33337 7.65329 3.40361 7.52827 3.52864C7.40325 3.65366 7.33301 3.82323 7.33301 4.00004V9.33337C7.33301 9.51019 7.40325 9.67975 7.52827 9.80478C7.65329 9.9298 7.82286 10 7.99967 10C8.17649 10 8.34605 9.9298 8.47108 9.80478C8.5961 9.67975 8.66634 9.51019 8.66634 9.33337V4.00004C8.66634 3.82323 8.5961 3.65366 8.47108 3.52864C8.34605 3.40361 8.17649 3.33337 7.99967 3.33337Z" fill="#F0F0F0"/>
<path d="M8.66634 12C8.66634 11.6319 8.36786 11.3334 7.99967 11.3334C7.63148 11.3334 7.33301 11.6319 7.33301 12C7.33301 12.3682 7.63148 12.6667 7.99967 12.6667C8.36786 12.6667 8.66634 12.3682 8.66634 12Z" fill="#F0F0F0"/>
</g>
<defs>
<clipPath id="clip0_271_8557">
<rect width="16" height="16" fill="white"/>
</clipPath>
</defs>
</svg>
