<svg width="16" height="16" viewBox="0 0 16 16" fill="none" xmlns="http://www.w3.org/2000/svg">
<path d="M12.4735 5.47332C12.4116 5.41084 12.3378 5.36124 12.2566 5.32739C12.1753 5.29355 12.0882 5.27612 12.0002 5.27612C11.9122 5.27612 11.8251 5.29355 11.7438 5.32739C11.6626 5.36124 11.5888 5.41084 11.5269 5.47332L8.47354 8.52666C8.41156 8.58914 8.33783 8.63874 8.25659 8.67258C8.17535 8.70643 8.08821 8.72385 8.0002 8.72385C7.9122 8.72385 7.82506 8.70643 7.74382 8.67258C7.66258 8.63874 7.58884 8.58914 7.52687 8.52666L4.47354 5.47332C4.41156 5.41084 4.33783 5.36124 4.25659 5.32739C4.17535 5.29355 4.08821 5.27612 4.0002 5.27612C3.91219 5.27612 3.82506 5.29355 3.74382 5.32739C3.66258 5.36124 3.58884 5.41084 3.52687 5.47332C3.4027 5.59823 3.33301 5.7672 3.33301 5.94332C3.33301 6.11945 3.4027 6.28841 3.52687 6.41332L6.58687 9.47332C6.96187 9.84786 7.4702 10.0582 8.0002 10.0582C8.5302 10.0582 9.03854 9.84786 9.41354 9.47332L12.4735 6.41332C12.5977 6.28841 12.6674 6.11945 12.6674 5.94332C12.6674 5.7672 12.5977 5.59823 12.4735 5.47332Z" fill="#F0F0F0"/>
</svg>
