<svg width="16" height="17" viewBox="0 0 16 17" fill="none" xmlns="http://www.w3.org/2000/svg">
<g clip-path="url(#clip0_160_178)">
<path d="M13.4251 16.5C13.1784 16.4993 12.9344 16.4498 12.707 16.3542C12.4797 16.2587 12.2735 16.119 12.1004 15.9433L8.00041 11.8673L3.90041 15.946C3.63709 16.2132 3.2994 16.3948 2.93135 16.4672C2.5633 16.5396 2.18197 16.4995 1.83707 16.352C1.48875 16.2119 1.19077 15.97 0.982047 15.6579C0.773322 15.3459 0.663553 14.9781 0.667074 14.6027V3.83333C0.667074 2.94928 1.01826 2.10143 1.64339 1.47631C2.26851 0.851189 3.11635 0.5 4.00041 0.5L12.0004 0.5C12.4381 0.5 12.8716 0.586219 13.276 0.753735C13.6804 0.921251 14.0479 1.16678 14.3574 1.47631C14.667 1.78584 14.9125 2.1533 15.08 2.55772C15.2475 2.96214 15.3337 3.39559 15.3337 3.83333V14.6027C15.3375 14.9778 15.2281 15.3453 15.0199 15.6574C14.8116 15.9694 14.5142 16.2115 14.1664 16.352C13.9316 16.4502 13.6796 16.5005 13.4251 16.5ZM4.00041 1.83333C3.46997 1.83333 2.96127 2.04405 2.58619 2.41912C2.21112 2.79419 2.00041 3.3029 2.00041 3.83333V14.6027C2.00017 14.7138 2.03285 14.8224 2.09434 14.9149C2.15583 15.0075 2.24336 15.0797 2.34587 15.1225C2.44838 15.1653 2.56128 15.1768 2.6703 15.1554C2.77932 15.1341 2.87958 15.0809 2.95841 15.0027L7.53374 10.4553C7.65865 10.3312 7.82762 10.2615 8.00374 10.2615C8.17986 10.2615 8.34883 10.3312 8.47374 10.4553L13.0437 15.0013C13.1226 15.0796 13.2228 15.1328 13.3318 15.1541C13.4409 15.1754 13.5538 15.164 13.6563 15.1212C13.7588 15.0784 13.8463 15.0061 13.9078 14.9136C13.9693 14.8211 14.002 14.7124 14.0017 14.6013V3.83333C14.0017 3.3029 13.791 2.79419 13.416 2.41912C13.0409 2.04405 12.5322 1.83333 12.0017 1.83333H4.00041Z" fill="#F0F0F0"/>
</g>
<defs>
<clipPath id="clip0_160_178">
<rect width="16" height="16" fill="white" transform="translate(0 0.5)"/>
</clipPath>
</defs>
</svg>
