<svg width="16" height="16" viewBox="0 0 16 16" fill="none" xmlns="http://www.w3.org/2000/svg">
<path d="M8.87475 7.9996C8.87475 8.48263 8.48274 8.87465 7.99972 8.87465C7.5167 8.87465 7.12468 8.48263 7.12468 7.9996C7.12468 7.51658 7.5167 7.12455 7.99972 7.12455C8.48274 7.12455 8.87475 7.51658 8.87475 7.9996ZM10.9165 7.12455C10.4335 7.12455 10.0415 7.51658 10.0415 7.9996C10.0415 8.48263 10.4335 8.87465 10.9165 8.87465C11.3995 8.87465 11.7915 8.48263 11.7915 7.9996C11.7915 7.51658 11.3995 7.12455 10.9165 7.12455ZM5.08293 7.12455C4.59992 7.12455 4.2079 7.51658 4.2079 7.9996C4.2079 8.48263 4.59992 8.87465 5.08293 8.87465C5.56595 8.87465 5.95797 8.48263 5.95797 7.9996C5.95797 7.51658 5.56595 7.12455 5.08293 7.12455ZM15 8.19795V12.0832C15 13.6915 13.6915 15 12.0832 15H8.63149C4.54741 15 1.27361 12.2045 1.01694 8.4978C0.876349 6.47002 1.61605 4.4854 3.04644 3.05324C4.47683 1.62108 6.46141 0.879033 8.48741 1.01612C12.1392 1.26405 15 4.41832 15 8.19795ZM13.8333 8.19795C13.8333 5.02969 11.4509 2.38645 8.40865 2.17994C8.27506 2.17061 8.14147 2.16652 8.00847 2.16652C6.45907 2.16652 4.96976 2.77789 3.87189 3.87754C2.6795 5.0711 2.0629 6.72611 2.18073 8.41729C2.39833 11.5558 5.11152 13.8338 8.63208 13.8338H12.0838C13.0487 13.8338 13.8339 13.0486 13.8339 12.0838V8.19853L13.8333 8.19795Z" fill="#9D9D9D"/>
</svg>
