<svg width="20" height="20" viewBox="0 0 20 20" fill="none" xmlns="http://www.w3.org/2000/svg">
<g clip-path="url(#clip0_112_6929)">
<path d="M18.6547 10.0025C18.3197 9.86333 17.9288 9.95583 17.6955 10.2358C16.9222 11.1567 15.6072 11.5858 13.5555 11.5858C10.3772 11.5858 8.40634 10.7275 8.40634 6.45416C8.40634 4.45666 8.84967 3.105 9.76134 2.32333C10.0363 2.0875 10.1272 1.69916 9.98551 1.36583C9.84384 1.03166 9.50968 0.819996 9.13967 0.862496C4.40384 1.31083 0.833008 5.23083 0.833008 9.98166C0.833008 15.0333 4.95301 19.1425 10.018 19.1425C14.7847 19.1425 18.7163 15.5775 19.1622 10.85C19.1972 10.4867 18.9913 10.1433 18.6547 10.0025Z" fill="#5D5FEF"/>
</g>
<defs>
<clipPath id="clip0_112_6929">
<rect width="20" height="20" fill="white"/>
</clipPath>
</defs>
</svg>
