<svg width="20" height="20" viewBox="0 0 20 20" fill="none" xmlns="http://www.w3.org/2000/svg">
<g clip-path="url(#clip0_271_8588)">
<path d="M19.9592 10.25L19.3717 6.08333C19.2273 5.09161 18.7319 4.18459 17.9756 3.52706C17.2193 2.86952 16.2522 2.5051 15.25 2.5H4.16667C3.062 2.50132 2.00297 2.94073 1.22185 3.72185C0.440735 4.50296 0.00132321 5.562 0 6.66667L0 10.8333C0.00132321 11.938 0.440735 12.997 1.22185 13.7782C2.00297 14.5593 3.062 14.9987 4.16667 15H6.42667L8.02167 18.2317C8.28981 18.7763 8.74479 19.2065 9.30365 19.4436C9.8625 19.6807 10.488 19.7091 11.066 19.5235C11.644 19.3379 12.1361 18.9507 12.4524 18.4326C12.7687 17.9144 12.8882 17.2998 12.7892 16.7008L12.5092 15H15.8333C16.4298 15 17.0193 14.872 17.5621 14.6245C18.1048 14.3771 18.5881 14.016 18.9792 13.5657C19.3704 13.1154 19.6603 12.5863 19.8293 12.0143C19.9984 11.4423 20.0427 10.8406 19.9592 10.25ZM4.16667 4.16667H5.83333V13.3333H4.16667C3.50363 13.3333 2.86774 13.0699 2.3989 12.6011C1.93006 12.1323 1.66667 11.4964 1.66667 10.8333V6.66667C1.66667 6.00363 1.93006 5.36774 2.3989 4.8989C2.86774 4.43006 3.50363 4.16667 4.16667 4.16667ZM17.72 12.4733C17.4854 12.7433 17.1955 12.9598 16.87 13.1081C16.5446 13.2565 16.191 13.3333 15.8333 13.3333H11.5275C11.4066 13.3333 11.2872 13.3596 11.1775 13.4103C11.0678 13.4611 10.9704 13.5351 10.8922 13.6272C10.8139 13.7193 10.7567 13.8273 10.7243 13.9438C10.692 14.0603 10.6854 14.1824 10.705 14.3017L11.145 16.9683C11.1661 17.0921 11.1597 17.219 11.1261 17.34C11.0926 17.461 11.0327 17.5731 10.9508 17.6683C10.8548 17.7718 10.7356 17.851 10.603 17.8995C10.4705 17.9479 10.3283 17.9642 10.1882 17.9469C10.0481 17.9297 9.91406 17.8794 9.79717 17.8003C9.68029 17.7211 9.58387 17.6154 9.51583 17.4917L7.69167 13.7983C7.64355 13.706 7.57854 13.6234 7.5 13.555V4.16667H15.25C15.8519 4.16887 16.4329 4.38727 16.8873 4.78208C17.3416 5.17689 17.6389 5.7218 17.725 6.3175L18.3133 10.4842C18.3627 10.8389 18.3352 11.2001 18.2329 11.5432C18.1305 11.8864 17.9556 12.2036 17.72 12.4733Z" fill="#E53935"/>
</g>
<defs>
<clipPath id="clip0_271_8588">
<rect width="20" height="20" fill="white"/>
</clipPath>
</defs>
</svg>
