<svg width="12" height="12" viewBox="0 0 12 12" fill="none" xmlns="http://www.w3.org/2000/svg">
<g clip-path="url(#clip0_59_4527)">
<path d="M9.5 1.5H6.236C6.15867 1.50051 6.08224 1.48341 6.0125 1.45L4.4345 0.658C4.2262 0.554273 3.9967 0.500193 3.764 0.5H2.5C1.8372 0.500794 1.20178 0.764441 0.73311 1.23311C0.264441 1.70178 0.000793929 2.3372 0 3L0 9C0.000793929 9.6628 0.264441 10.2982 0.73311 10.7669C1.20178 11.2356 1.8372 11.4992 2.5 11.5H9.5C10.1628 11.4992 10.7982 11.2356 11.2669 10.7669C11.7356 10.2982 11.9992 9.6628 12 9V4C11.9992 3.3372 11.7356 2.70178 11.2669 2.23311C10.7982 1.76444 10.1628 1.50079 9.5 1.5ZM2.5 1.5H3.764C3.84133 1.49949 3.91776 1.51659 3.9875 1.55L5.5655 2.3395C5.77359 2.44409 6.0031 2.49903 6.236 2.5H9.5C9.79902 2.50049 10.0911 2.59033 10.3387 2.75801C10.5862 2.92568 10.7781 3.16352 10.8895 3.441L1 3.497V3C1 2.60218 1.15804 2.22064 1.43934 1.93934C1.72064 1.65804 2.10218 1.5 2.5 1.5ZM9.5 10.5H2.5C2.10218 10.5 1.72064 10.342 1.43934 10.0607C1.15804 9.77936 1 9.39782 1 9V4.497L11 4.4405V9C11 9.39782 10.842 9.77936 10.5607 10.0607C10.2794 10.342 9.89782 10.5 9.5 10.5Z" fill="#9D9D9D"/>
</g>
<defs>
<clipPath id="clip0_59_4527">
<rect width="12" height="12" fill="white"/>
</clipPath>
</defs>
</svg>
