<svg width="32" height="32" viewBox="0 0 32 32" fill="none" xmlns="http://www.w3.org/2000/svg">
<g clip-path="url(#clip0_81_6210)">
<path d="M20.1213 21.3293C28.8827 21.2853 32 16.6453 32 12.6667C32 10.4307 30.4173 8.56 28.3147 8.108C28.496 7.592 28.6533 7.11867 28.76 6.76C29.2307 5.16933 28.9253 3.488 27.924 2.148C26.9027 0.784 25.3413 0 23.6387 0H8.36133C6.65867 0 5.096 0.784 4.07467 2.14933C3.07333 3.48933 2.76933 5.17067 3.24 6.76C3.34667 7.11867 3.50267 7.592 3.68533 8.108C1.58267 8.56 0 10.4307 0 12.6667C0 16.6453 3.11867 21.2853 11.8787 21.3293C11.9533 21.732 12 22.1427 12 22.56V26.6667C12 29.1013 9.952 29.3227 9.33333 29.3333H8C7.26267 29.3333 6.66667 29.9293 6.66667 30.6667C6.66667 31.404 7.26267 32 8 32H24C24.7373 32 25.3333 31.404 25.3333 30.6667C25.3333 29.9293 24.7373 29.3333 24 29.3333H22.6773C22.048 29.3227 20 29.1013 20 26.6667V22.56C20 22.1427 20.0467 21.732 20.1213 21.3293ZM27.3333 10.6667C28.436 10.6667 29.3333 11.564 29.3333 12.6667C29.3333 15.3787 27.188 18.2627 21.2853 18.6267C21.58 18.228 21.9173 17.8587 22.3013 17.532C24.62 15.5613 26.212 12.928 27.2707 10.6533C27.2933 10.6533 27.3107 10.6667 27.3333 10.6667ZM2.66667 12.6667C2.66667 11.564 3.564 10.6667 4.66667 10.6667C4.68933 10.6667 4.708 10.6547 4.72933 10.6533C5.788 12.928 7.37867 15.56 9.69867 17.532C10.0827 17.8587 10.42 18.2267 10.7147 18.6267C4.812 18.2627 2.66667 15.3787 2.66667 12.6667ZM14.0173 29.3333C14.4107 28.612 14.6667 27.7413 14.6667 26.6667V22.56C14.6667 19.8253 13.4853 17.2533 11.4253 15.5013C9.06667 13.496 6.96267 9.94533 5.79733 6.00533C5.568 5.228 5.71733 4.40533 6.212 3.74667C6.724 3.06 7.508 2.66667 8.36133 2.66667H23.6373C24.4907 2.66667 25.2747 3.06 25.7867 3.74533C26.2787 4.40533 26.4293 5.228 26.2013 6.004C25.0347 9.94667 22.9307 13.496 20.5733 15.5013C18.5133 17.252 17.332 19.8253 17.332 22.56V26.6667C17.332 27.7413 17.5867 28.612 17.9813 29.3333H14.0173ZM13.0547 13.0173C12.7027 12.7747 12.5547 12.3267 12.6947 11.9213L13.3867 9.78L11.5653 8.44667C11.1293 8.12667 11.0347 7.51467 11.3547 7.07867C11.5387 6.828 11.832 6.67867 12.1427 6.67867H14.384L15.0653 4.55467C15.2373 4.03867 15.7947 3.76133 16.3107 3.93333C16.604 4.03067 16.8347 4.26133 16.932 4.55467L17.612 6.67867H19.8533C20.3933 6.67867 20.832 7.116 20.832 7.65733C20.832 7.97067 20.6827 8.264 20.4307 8.448L18.6093 9.78133L19.3013 11.9227C19.4667 12.4373 19.184 12.9893 18.668 13.156C18.3693 13.252 18.0427 13.1987 17.7893 13.0133L15.9987 11.696L14.2067 13.012C13.8653 13.2667 13.3987 13.268 13.0547 13.0173Z" fill="#9D9D9D"/>
</g>
<defs>
<clipPath id="clip0_81_6210">
<rect width="32" height="32" fill="white"/>
</clipPath>
</defs>
</svg>
