<svg width="16" height="16" viewBox="0 0 16 16" fill="none" xmlns="http://www.w3.org/2000/svg">
<path d="M8.00433 2.14136C4.59233 2.14136 0.770326 2.89536 0.666992 8.21536C0.698326 9.76336 1.04166 11.8034 1.73833 12.8707C2.18299 13.5514 2.97099 13.9154 3.79766 13.8214C4.61766 13.728 5.30033 13.2 5.57833 12.4434C5.97833 11.3507 6.74966 10.8367 7.99499 10.8274C9.22499 10.8374 10.019 11.376 10.4237 12.4754C10.7003 13.226 11.4703 13.86 12.451 13.86C13.1777 13.86 13.8503 13.5067 14.2483 12.9014C14.955 11.83 15.3023 9.77602 15.3337 8.19002C15.2323 2.86736 11.2737 2.14202 8.00433 2.14202V2.14136ZM13.135 12.1674C12.9643 12.4254 12.667 12.5574 12.3443 12.52C12.0277 12.4834 11.7777 12.2947 11.6743 12.014C11.081 10.4027 9.77833 9.50802 7.99433 9.49336C6.18566 9.50736 4.91699 10.3687 4.32566 11.984C4.22099 12.268 3.96699 12.4594 3.64566 12.4967C3.32166 12.532 3.02299 12.4007 2.85366 12.142C2.39033 11.432 2.03099 9.76936 1.99899 8.21536C2.07499 4.29736 4.35099 3.49602 7.99899 3.47536C12.2523 3.50136 13.9343 4.83069 13.999 8.18936C13.967 9.78269 13.603 11.4554 13.1337 12.168L13.135 12.1674Z" fill="#9D9D9D"/>
<path d="M6.28746 7.32599L5.95746 6.99599L6.28746 6.66599C6.54746 6.40599 6.54813 5.98399 6.28746 5.72333C6.02679 5.46266 5.60479 5.46333 5.34479 5.72333L5.01479 6.05333L4.68479 5.72333C4.42413 5.46266 4.00213 5.46333 3.74213 5.72333C3.48213 5.98333 3.48146 6.40533 3.74213 6.66599L4.07213 6.99599L3.74213 7.32599C3.48213 7.58599 3.48146 8.00799 3.74213 8.26866C4.00279 8.52933 4.42479 8.52866 4.68479 8.26866L5.01479 7.93866L5.34479 8.26866C5.60546 8.52933 6.02746 8.52866 6.28746 8.26866C6.54746 8.00866 6.54813 7.58666 6.28746 7.32599Z" fill="#9D9D9D"/>
<path d="M10.8532 6.39931C11.2214 6.39931 11.5199 6.10084 11.5199 5.73265C11.5199 5.36446 11.2214 5.06598 10.8532 5.06598C10.485 5.06598 10.1865 5.36446 10.1865 5.73265C10.1865 6.10084 10.485 6.39931 10.8532 6.39931Z" fill="#9D9D9D"/>
<path d="M12.1198 7.66469C12.488 7.66469 12.7865 7.36622 12.7865 6.99803C12.7865 6.62984 12.488 6.33136 12.1198 6.33136C11.7516 6.33136 11.4531 6.62984 11.4531 6.99803C11.4531 7.36622 11.7516 7.66469 12.1198 7.66469Z" fill="#9D9D9D"/>
<path d="M10.8532 8.928C11.2214 8.928 11.5199 8.62952 11.5199 8.26133C11.5199 7.89314 11.2214 7.59467 10.8532 7.59467C10.485 7.59467 10.1865 7.89314 10.1865 8.26133C10.1865 8.62952 10.485 8.928 10.8532 8.928Z" fill="#9D9D9D"/>
<path d="M9.58659 7.66469C9.95478 7.66469 10.2533 7.36622 10.2533 6.99803C10.2533 6.62984 9.95478 6.33136 9.58659 6.33136C9.2184 6.33136 8.91992 6.62984 8.91992 6.99803C8.91992 7.36622 9.2184 7.66469 9.58659 7.66469Z" fill="#9D9D9D"/>
</svg>
