<svg width="20" height="20" viewBox="0 0 20 20" fill="none" xmlns="http://www.w3.org/2000/svg">
<g clip-path="url(#clip0_57_1027)">
<path d="M5.83333 0H3.33333C2.44928 0 1.60143 0.35119 0.976311 0.976311C0.35119 1.60143 0 2.44928 0 3.33333L0 5.83333C0 6.71739 0.35119 7.56524 0.976311 8.19036C1.60143 8.81548 2.44928 9.16667 3.33333 9.16667H5.83333C6.71739 9.16667 7.56524 8.81548 8.19036 8.19036C8.81548 7.56524 9.16667 6.71739 9.16667 5.83333V3.33333C9.16667 2.44928 8.81548 1.60143 8.19036 0.976311C7.56524 0.35119 6.71739 0 5.83333 0ZM7.5 5.83333C7.5 6.27536 7.32441 6.69928 7.01184 7.01184C6.69928 7.32441 6.27536 7.5 5.83333 7.5H3.33333C2.89131 7.5 2.46738 7.32441 2.15482 7.01184C1.84226 6.69928 1.66667 6.27536 1.66667 5.83333V3.33333C1.66667 2.89131 1.84226 2.46738 2.15482 2.15482C2.46738 1.84226 2.89131 1.66667 3.33333 1.66667H5.83333C6.27536 1.66667 6.69928 1.84226 7.01184 2.15482C7.32441 2.46738 7.5 2.89131 7.5 3.33333V5.83333Z" fill="#9D9D9D"/>
<path d="M16.6663 -2.38419e-07H14.1663C13.2823 -2.38419e-07 12.4344 0.351189 11.8093 0.976311C11.1842 1.60143 10.833 2.44928 10.833 3.33333V5.83333C10.833 6.71739 11.1842 7.56523 11.8093 8.19036C12.4344 8.81548 13.2823 9.16667 14.1663 9.16667H16.6663C17.5504 9.16667 18.3982 8.81548 19.0234 8.19036C19.6485 7.56523 19.9997 6.71739 19.9997 5.83333V3.33333C19.9997 2.44928 19.6485 1.60143 19.0234 0.976311C18.3982 0.351189 17.5504 -2.38419e-07 16.6663 -2.38419e-07ZM18.333 5.83333C18.333 6.27536 18.1574 6.69928 17.8449 7.01184C17.5323 7.3244 17.1084 7.5 16.6663 7.5H14.1663C13.7243 7.5 13.3004 7.3244 12.9878 7.01184C12.6753 6.69928 12.4997 6.27536 12.4997 5.83333V3.33333C12.4997 2.89131 12.6753 2.46738 12.9878 2.15482C13.3004 1.84226 13.7243 1.66667 14.1663 1.66667H16.6663C17.1084 1.66667 17.5323 1.84226 17.8449 2.15482C18.1574 2.46738 18.333 2.89131 18.333 3.33333V5.83333Z" fill="#9D9D9D"/>
<path d="M5.83333 10.8333H3.33333C2.44928 10.8333 1.60143 11.1845 0.976311 11.8096C0.35119 12.4348 0 13.2826 0 14.1667L0 16.6667C0 17.5507 0.35119 18.3986 0.976311 19.0237C1.60143 19.6488 2.44928 20 3.33333 20H5.83333C6.71739 20 7.56524 19.6488 8.19036 19.0237C8.81548 18.3986 9.16667 17.5507 9.16667 16.6667V14.1667C9.16667 13.2826 8.81548 12.4348 8.19036 11.8096C7.56524 11.1845 6.71739 10.8333 5.83333 10.8333ZM7.5 16.6667C7.5 17.1087 7.32441 17.5326 7.01184 17.8452C6.69928 18.1577 6.27536 18.3333 5.83333 18.3333H3.33333C2.89131 18.3333 2.46738 18.1577 2.15482 17.8452C1.84226 17.5326 1.66667 17.1087 1.66667 16.6667V14.1667C1.66667 13.7246 1.84226 13.3007 2.15482 12.9882C2.46738 12.6756 2.89131 12.5 3.33333 12.5H5.83333C6.27536 12.5 6.69928 12.6756 7.01184 12.9882C7.32441 13.3007 7.5 13.7246 7.5 14.1667V16.6667Z" fill="#9D9D9D"/>
<path d="M16.6663 10.8333H14.1663C13.2823 10.8333 12.4344 11.1845 11.8093 11.8096C11.1842 12.4348 10.833 13.2826 10.833 14.1667V16.6667C10.833 17.5507 11.1842 18.3986 11.8093 19.0237C12.4344 19.6488 13.2823 20 14.1663 20H16.6663C17.5504 20 18.3982 19.6488 19.0234 19.0237C19.6485 18.3986 19.9997 17.5507 19.9997 16.6667V14.1667C19.9997 13.2826 19.6485 12.4348 19.0234 11.8096C18.3982 11.1845 17.5504 10.8333 16.6663 10.8333ZM18.333 16.6667C18.333 17.1087 18.1574 17.5326 17.8449 17.8452C17.5323 18.1577 17.1084 18.3333 16.6663 18.3333H14.1663C13.7243 18.3333 13.3004 18.1577 12.9878 17.8452C12.6753 17.5326 12.4997 17.1087 12.4997 16.6667V14.1667C12.4997 13.7246 12.6753 13.3007 12.9878 12.9882C13.3004 12.6756 13.7243 12.5 14.1663 12.5H16.6663C17.1084 12.5 17.5323 12.6756 17.8449 12.9882C18.1574 13.3007 18.333 13.7246 18.333 14.1667V16.6667Z" fill="#9D9D9D"/>
</g>
<defs>
<clipPath id="clip0_57_1027">
<rect width="20" height="20" fill="white"/>
</clipPath>
</defs>
</svg>
