<svg width="16" height="16" viewBox="0 0 16 16" fill="none" xmlns="http://www.w3.org/2000/svg">
<path d="M15.2306 5.6093C14.9376 5.26784 14.5754 4.99403 14.1686 4.80641C13.7619 4.61879 13.32 4.52175 12.8729 4.52184H10.3802L10.5902 3.23218C10.6645 2.77803 10.5748 2.312 10.3376 1.9191C10.1004 1.5262 9.73146 1.23261 9.29802 1.09188C8.86458 0.95115 8.39556 0.972653 7.97649 1.15247C7.55743 1.33228 7.21625 1.65843 7.01518 2.07142L5.81914 4.52184H4.12444C3.29609 4.52285 2.50196 4.85603 1.91622 5.44831C1.33049 6.0406 1.00099 6.84362 1 7.68123L1 10.8406C1.00099 11.6782 1.33049 12.4812 1.91622 13.0735C2.50196 13.6658 3.29609 13.999 4.12444 14H12.4355C13.1875 13.9969 13.9134 13.7209 14.4812 13.2223C15.049 12.7236 15.4209 12.0354 15.5293 11.2829L15.9698 8.12354C16.0319 7.67537 15.998 7.21896 15.8704 6.78518C15.7429 6.35141 15.5247 5.9504 15.2306 5.6093ZM2.24978 10.8406V7.68123C2.24978 7.17848 2.44729 6.69631 2.79885 6.34081C3.15042 5.98531 3.62725 5.7856 4.12444 5.7856H5.37422V12.7362H4.12444C3.62725 12.7362 3.15042 12.5365 2.79885 12.181C2.44729 11.8255 2.24978 11.3434 2.24978 10.8406ZM14.7294 7.94598L14.2883 11.1054C14.2238 11.5565 14.0013 11.9693 13.6612 12.2686C13.3212 12.5679 12.8863 12.7338 12.4355 12.7362H6.624V5.61752C6.68289 5.56564 6.73164 5.50305 6.76772 5.43301L8.1356 2.63063C8.1869 2.53707 8.25942 2.45715 8.34721 2.39745C8.43499 2.33774 8.53554 2.29995 8.64058 2.28718C8.74562 2.27442 8.85215 2.28703 8.95143 2.324C9.05071 2.36097 9.1399 2.42123 9.21166 2.49984C9.27305 2.57203 9.31794 2.65703 9.3431 2.74878C9.36827 2.84052 9.37311 2.93676 9.35726 3.03061L9.02732 5.05262C9.01284 5.14297 9.01794 5.23541 9.04227 5.32357C9.0666 5.41173 9.10958 5.49349 9.16823 5.56319C9.22689 5.6329 9.29982 5.68889 9.38198 5.72729C9.46414 5.76569 9.55357 5.78559 9.64408 5.7856H12.8729C13.1412 5.78556 13.4064 5.84377 13.6506 5.9563C13.8948 6.06882 14.1122 6.23304 14.2882 6.43784C14.4642 6.64265 14.5947 6.88328 14.6708 7.14346C14.7469 7.40364 14.7669 7.67731 14.7294 7.94598Z" fill="#9D9D9D"/>
</svg>
