<svg width="20" height="20" viewBox="0 0 20 20" fill="none" xmlns="http://www.w3.org/2000/svg">
<g clip-path="url(#clip0_57_1032)">
<path d="M3.75 14.5833H1.66667C1.22464 14.5833 0.800716 14.7589 0.488155 15.0715C0.175595 15.3841 0 15.808 0 16.25L0 18.3333C0 18.7754 0.175595 19.1993 0.488155 19.5118C0.800716 19.8244 1.22464 20 1.66667 20H3.75C4.19203 20 4.61595 19.8244 4.92851 19.5118C5.24107 19.1993 5.41667 18.7754 5.41667 18.3333V16.25C5.41667 15.808 5.24107 15.3841 4.92851 15.0715C4.61595 14.7589 4.19203 14.5833 3.75 14.5833ZM3.75 18.3333H1.66667V16.25H3.75V18.3333Z" fill="#F0F0F0"/>
<path d="M18.333 14.5833H16.2497C15.8076 14.5833 15.3837 14.7589 15.0712 15.0715C14.7586 15.3841 14.583 15.808 14.583 16.25V18.3333C14.583 18.7754 14.7586 19.1993 15.0712 19.5118C15.3837 19.8244 15.8076 20 16.2497 20H18.333C18.775 20 19.199 19.8244 19.5115 19.5118C19.8241 19.1993 19.9997 18.7754 19.9997 18.3333V16.25C19.9997 15.808 19.8241 15.3841 19.5115 15.0715C19.199 14.7589 18.775 14.5833 18.333 14.5833ZM18.333 18.3333H16.2497V16.25H18.333V18.3333Z" fill="#F0F0F0"/>
<path d="M3.75 7.29167H1.66667C1.22464 7.29167 0.800716 7.46726 0.488155 7.77982C0.175595 8.09238 0 8.51631 0 8.95833L0 11.0417C0 11.4837 0.175595 11.9076 0.488155 12.2202C0.800716 12.5327 1.22464 12.7083 1.66667 12.7083H3.75C4.19203 12.7083 4.61595 12.5327 4.92851 12.2202C5.24107 11.9076 5.41667 11.4837 5.41667 11.0417V8.95833C5.41667 8.51631 5.24107 8.09238 4.92851 7.77982C4.61595 7.46726 4.19203 7.29167 3.75 7.29167ZM3.75 11.0417H1.66667V8.95833H3.75V11.0417Z" fill="#F0F0F0"/>
<path d="M18.333 7.29167H16.2497C15.8076 7.29167 15.3837 7.46726 15.0712 7.77982C14.7586 8.09238 14.583 8.51631 14.583 8.95833V11.0417C14.583 11.4837 14.7586 11.9076 15.0712 12.2202C15.3837 12.5327 15.8076 12.7083 16.2497 12.7083H18.333C18.775 12.7083 19.199 12.5327 19.5115 12.2202C19.8241 11.9076 19.9997 11.4837 19.9997 11.0417V8.95833C19.9997 8.51631 19.8241 8.09238 19.5115 7.77982C19.199 7.46726 18.775 7.29167 18.333 7.29167ZM18.333 11.0417H16.2497V8.95833H18.333V11.0417Z" fill="#F0F0F0"/>
<path d="M3.75 0H1.66667C1.22464 0 0.800716 0.175595 0.488155 0.488155C0.175595 0.800716 0 1.22464 0 1.66667L0 3.75C0 4.19203 0.175595 4.61595 0.488155 4.92851C0.800716 5.24107 1.22464 5.41667 1.66667 5.41667H3.75C4.19203 5.41667 4.61595 5.24107 4.92851 4.92851C5.24107 4.61595 5.41667 4.19203 5.41667 3.75V1.66667C5.41667 1.22464 5.24107 0.800716 4.92851 0.488155C4.61595 0.175595 4.19203 0 3.75 0ZM3.75 3.75H1.66667V1.66667H3.75V3.75Z" fill="#F0F0F0"/>
<path d="M11.042 14.5833H8.95866C8.51663 14.5833 8.09271 14.7589 7.78015 15.0715C7.46759 15.3841 7.29199 15.808 7.29199 16.25V18.3333C7.29199 18.7754 7.46759 19.1993 7.78015 19.5118C8.09271 19.8244 8.51663 20 8.95866 20H11.042C11.484 20 11.9079 19.8244 12.2205 19.5118C12.5331 19.1993 12.7087 18.7754 12.7087 18.3333V16.25C12.7087 15.808 12.5331 15.3841 12.2205 15.0715C11.9079 14.7589 11.484 14.5833 11.042 14.5833ZM11.042 18.3333H8.95866V16.25H11.042V18.3333Z" fill="#F0F0F0"/>
<path d="M11.042 7.29167H8.95866C8.51663 7.29167 8.09271 7.46726 7.78015 7.77982C7.46759 8.09238 7.29199 8.51631 7.29199 8.95833V11.0417C7.29199 11.4837 7.46759 11.9076 7.78015 12.2202C8.09271 12.5327 8.51663 12.7083 8.95866 12.7083H11.042C11.484 12.7083 11.9079 12.5327 12.2205 12.2202C12.5331 11.9076 12.7087 11.4837 12.7087 11.0417V8.95833C12.7087 8.51631 12.5331 8.09238 12.2205 7.77982C11.9079 7.46726 11.484 7.29167 11.042 7.29167ZM11.042 11.0417H8.95866V8.95833H11.042V11.0417Z" fill="#F0F0F0"/>
<path d="M11.042 -2.38419e-07H8.95866C8.51663 -2.38419e-07 8.09271 0.175595 7.78015 0.488155C7.46759 0.800716 7.29199 1.22464 7.29199 1.66667V3.75C7.29199 4.19203 7.46759 4.61595 7.78015 4.92851C8.09271 5.24107 8.51663 5.41667 8.95866 5.41667H11.042C11.484 5.41667 11.9079 5.24107 12.2205 4.92851C12.5331 4.61595 12.7087 4.19203 12.7087 3.75V1.66667C12.7087 1.22464 12.5331 0.800716 12.2205 0.488155C11.9079 0.175595 11.484 -2.38419e-07 11.042 -2.38419e-07ZM11.042 3.75H8.95866V1.66667H11.042V3.75Z" fill="#F0F0F0"/>
<path d="M18.333 -2.38419e-07H16.2497C15.8076 -2.38419e-07 15.3837 0.175595 15.0712 0.488155C14.7586 0.800716 14.583 1.22464 14.583 1.66667V3.75C14.583 4.19203 14.7586 4.61595 15.0712 4.92851C15.3837 5.24107 15.8076 5.41667 16.2497 5.41667H18.333C18.775 5.41667 19.199 5.24107 19.5115 4.92851C19.8241 4.61595 19.9997 4.19203 19.9997 3.75V1.66667C19.9997 1.22464 19.8241 0.800716 19.5115 0.488155C19.199 0.175595 18.775 -2.38419e-07 18.333 -2.38419e-07ZM18.333 3.75H16.2497V1.66667H18.333V3.75Z" fill="#F0F0F0"/>
</g>
<defs>
<clipPath id="clip0_57_1032">
<rect width="20" height="20" fill="white"/>
</clipPath>
</defs>
</svg>
