<svg width="44" height="44" viewBox="0 0 44 44" fill="none" xmlns="http://www.w3.org/2000/svg">
<g clip-path="url(#clip0_170_10459)">
<path d="M22.2904 13C19.7204 13 17.6504 15.08 17.6504 17.66C17.6504 20.24 19.7204 22.32 22.2904 22.32C24.8504 22.32 26.9304 20.24 26.9304 17.66C26.9304 15.08 24.8504 13 22.2904 13ZM22.2904 19.59C21.2304 19.59 20.3704 18.72 20.3704 17.66C20.3704 16.59 21.2304 15.73 22.2904 15.73C23.3504 15.73 24.2004 16.59 24.2004 17.66C24.2004 18.72 23.3504 19.59 22.2904 19.59Z" fill="#9D9D9D"/>
<path d="M23.9291 26.0401C25.7791 25.6501 26.8991 24.7701 26.9591 24.7201C27.4991 24.2801 27.5891 23.4901 27.1491 22.9401C26.7091 22.3901 25.9191 22.3101 25.3791 22.7401C25.3691 22.7501 24.1791 23.6701 22.2191 23.6701C20.2691 23.6701 19.0591 22.7501 19.0491 22.7401C18.4991 22.3101 17.7091 22.3901 17.2691 22.9401C16.8391 23.4901 16.9191 24.2801 17.4691 24.7201C17.5291 24.7701 18.6891 25.6801 20.5991 26.0501L17.9291 28.8501C17.4491 29.3501 17.4691 30.1501 17.9691 30.6401C18.2091 30.8801 18.5291 30.9901 18.8391 30.9901C19.1691 30.9901 19.4991 30.8701 19.7491 30.6101L22.2191 27.9601L24.9491 30.6201C25.4391 31.1201 26.2391 31.1201 26.7291 30.6201C27.2191 30.1301 27.2191 29.3201 26.7291 28.8301L23.9291 26.0401Z" fill="#9D9D9D"/>
</g>
<defs>
<clipPath id="clip0_170_10459">
<rect width="10.4326" height="18" fill="white" transform="translate(17 13)"/>
</clipPath>
</defs>
</svg>
