<svg width="16" height="12" viewBox="0 0 16 12" fill="none" xmlns="http://www.w3.org/2000/svg">
<g clip-path="url(#clip0_59_4376)">
<path d="M8.46646 12L6.09541 10.9905V0C6.09541 0 11.2489 0.86025 11.9583 2.99025C12.6676 5.12175 11.5621 6.50175 11.1735 6.54225C10.0916 6.65475 9.68017 5.98125 9.68017 5.98125V2.5425L8.50379 2.0565L8.46646 12ZM9.14303 10.74V12C9.14303 12 14.9838 10.2465 15.8432 9.57C16.7027 8.895 13.831 7.2135 12.2882 7.542C12.2882 7.542 10.6486 7.61625 9.16284 8.21775C9.14837 8.22375 9.16284 9.35025 9.16284 9.35025L12.9327 8.529L14.2607 9.0765L9.14303 10.74ZM5.31522 10.1602C5.31522 10.1602 4.59751 10.5173 2.99827 10.4992C1.39827 10.4812 -0.0181106 10.053 0.000175122 9.1245C0.0184608 8.196 2.64856 7.17825 5.29694 6.75V8.0535L2.48322 8.7675C2.48322 8.7675 2.0017 9.357 2.64856 9.375C3.55579 9.39402 4.4608 9.27925 5.33351 9.0345L5.31522 10.1595V10.1602Z" fill="#F0F0F0"/>
</g>
<defs>
<clipPath id="clip0_59_4376">
<rect width="16" height="12" fill="white"/>
</clipPath>
</defs>
</svg>
