<svg width="16" height="16" viewBox="0 0 16 16" fill="none" xmlns="http://www.w3.org/2000/svg">
<path d="M5.4579 5.2875H12.4219L8.27324 1.13817C8.01257 0.8775 8.01257 0.456167 8.27324 0.1955C8.5339 -0.0651667 8.95524 -0.0651667 9.2159 0.1955L14.0099 4.99017C14.5299 5.5095 14.5299 6.35617 14.0099 6.8755L9.2159 11.6688C9.0859 11.7988 8.91524 11.8642 8.74457 11.8642C8.5739 11.8642 8.40323 11.7988 8.27324 11.6688C8.01257 11.4082 8.01257 10.9868 8.27324 10.7262L12.3792 6.62083H5.4579C4.35524 6.62083 3.4579 7.51817 3.4579 8.62083V15.2875C3.4579 15.6562 3.15924 15.9542 2.79123 15.9542C2.42323 15.9542 2.12457 15.6562 2.12457 15.2875V8.62083C2.12457 6.78283 3.6199 5.2875 5.4579 5.2875Z" fill="#9D9D9D"/>
</svg>
