<svg width="20" height="20" viewBox="0 0 20 20" fill="none" xmlns="http://www.w3.org/2000/svg">
<g clip-path="url(#clip0_103_6896)">
<path d="M16.1107 12.2225C15.4807 12.223 14.8602 12.3768 14.3028 12.6707C13.7455 12.9645 13.268 13.3896 12.9116 13.9092L7.4874 11.46C7.87266 10.5297 7.87416 9.48474 7.49157 8.55333L12.9082 6.09167C13.4365 6.85563 14.221 7.40497 15.1196 7.64004C16.0181 7.87511 16.9712 7.78034 17.8058 7.37292C18.6405 6.9655 19.3015 6.27242 19.6689 5.41939C20.0364 4.56636 20.0859 3.60989 19.8085 2.72348C19.5312 1.83706 18.9453 1.07941 18.1572 0.587963C17.3691 0.0965119 16.4309 -0.0961893 15.5129 0.0448136C14.5948 0.185817 13.7577 0.651184 13.1534 1.3565C12.5491 2.06182 12.2176 2.96037 12.2191 3.88917C12.2226 4.109 12.2449 4.32813 12.2857 4.54417L6.5274 7.16083C5.97435 6.64268 5.28199 6.29736 4.53538 6.1673C3.78877 6.03724 3.02043 6.1281 2.32474 6.42871C1.62906 6.72933 1.03634 7.22661 0.6194 7.85947C0.202459 8.49232 -0.0205423 9.23319 -0.0222074 9.99104C-0.0238725 10.7489 0.195871 11.4907 0.610027 12.1254C1.02418 12.7601 1.61471 13.26 2.30907 13.5636C3.00342 13.8673 3.77136 13.9616 4.51853 13.8348C5.26571 13.708 5.95958 13.3657 6.5149 12.85L12.2882 15.4567C12.2481 15.6725 12.2261 15.8913 12.2224 16.1108C12.2222 16.8801 12.4502 17.6322 12.8775 18.2719C13.3048 18.9116 13.9122 19.4102 14.6229 19.7046C15.3336 19.9991 16.1156 20.0762 16.8701 19.9261C17.6246 19.7761 18.3177 19.4057 18.8616 18.8617C19.4056 18.3178 19.776 17.6247 19.926 16.8702C20.0761 16.1157 19.999 15.3336 19.7045 14.623C19.4101 13.9123 18.9115 13.3049 18.2718 12.8776C17.6321 12.4503 16.88 12.2223 16.1107 12.2225ZM16.1107 1.66667C16.5503 1.6665 16.9801 1.79671 17.3457 2.04082C17.7113 2.28493 17.9963 2.63198 18.1647 3.03808C18.333 3.44417 18.3771 3.89107 18.2915 4.32224C18.2058 4.75342 17.9942 5.14951 17.6834 5.46042C17.3726 5.77132 16.9766 5.98308 16.5455 6.0689C16.1143 6.15472 15.6674 6.11076 15.2612 5.94257C14.8551 5.77438 14.5079 5.48951 14.2637 5.12401C14.0194 4.7585 13.8891 4.32877 13.8891 3.88917C13.8895 3.3 14.1237 2.73508 14.5402 2.3184C14.9567 1.90172 15.5216 1.66733 16.1107 1.66667ZM3.88907 12.2225C3.44947 12.2227 3.01969 12.0925 2.65409 11.8483C2.28849 11.6042 2.0035 11.2572 1.83515 10.8511C1.66681 10.445 1.62268 9.9981 1.70834 9.56692C1.794 9.13575 2.00561 8.73966 2.3164 8.42875C2.62719 8.11784 3.0232 7.90609 3.45434 7.82027C3.88549 7.73444 4.3324 7.77841 4.73856 7.9466C5.14472 8.11479 5.49187 8.39965 5.73612 8.76516C5.98037 9.13066 6.11074 9.5604 6.11074 10C6.11008 10.5891 5.87582 11.1539 5.45935 11.5705C5.04287 11.9872 4.47817 12.2216 3.88907 12.2225ZM16.1107 18.3333C15.6712 18.3333 15.2415 18.203 14.876 17.9588C14.5105 17.7146 14.2256 17.3675 14.0574 16.9613C13.8892 16.5552 13.8452 16.1084 13.9309 15.6772C14.0167 15.2461 14.2284 14.8501 14.5392 14.5393C14.85 14.2285 15.246 14.0168 15.6771 13.931C16.1083 13.8453 16.5551 13.8893 16.9613 14.0575C17.3674 14.2257 17.7145 14.5106 17.9587 14.8761C18.2029 15.2416 18.3332 15.6713 18.3332 16.1108C18.3328 16.7001 18.0985 17.2652 17.6818 17.6819C17.2651 18.0986 16.7 18.3329 16.1107 18.3333Z" fill="#9D9D9D"/>
</g>
<defs>
<clipPath id="clip0_103_6896">
<rect width="20" height="20" fill="white"/>
</clipPath>
</defs>
</svg>
