<svg width="10" height="20" viewBox="0 0 10 20" fill="none" xmlns="http://www.w3.org/2000/svg">
<path d="M2.59121 0.859033C2.10979 0.377286 1.33273 0.380786 0.855597 0.866851C0.37846 1.35292 0.381927 2.13748 0.86334 2.61923L3.7482 5.50608C4.91901 6.6777 5.72214 7.48403 6.26557 8.16725C6.79346 8.83092 6.97456 9.25721 7.02276 9.63899C7.05302 9.87872 7.05302 10.1213 7.02276 10.361C6.97456 10.7428 6.79346 11.1691 6.26557 11.8327C5.72214 12.516 4.91901 13.3223 3.7482 14.4939L0.86334 17.3808C0.381927 17.8625 0.37846 18.6471 0.855597 19.1331C1.33273 19.6192 2.10979 19.6227 2.59121 19.141L5.52804 16.2021C6.63417 15.0952 7.53823 14.1906 8.17936 13.3845C8.84607 12.5464 9.32868 11.6956 9.4576 10.6744C9.51413 10.2266 9.51413 9.77343 9.4576 9.32564C9.32868 8.30441 8.84606 7.45364 8.17936 6.61545C7.53822 5.8094 6.63418 4.90476 5.52804 3.79789L2.59121 0.859033Z" fill="#F0F0F0"/>
</svg>
