<svg width="10" height="20" viewBox="0 0 10 20" fill="none" xmlns="http://www.w3.org/2000/svg">
<path d="M7.40879 19.141C7.89021 19.6227 8.66727 19.6192 9.1444 19.1331C9.62154 18.6471 9.61807 17.8625 9.13666 17.3808L6.2518 14.4939C5.08099 13.3223 4.27786 12.516 3.73443 11.8327C3.20654 11.1691 3.02544 10.7428 2.97724 10.361C2.94698 10.1213 2.94698 9.87872 2.97724 9.63899C3.02544 9.25721 3.20654 8.83092 3.73443 8.16725C4.27786 7.48403 5.08099 6.6777 6.2518 5.50609L9.13666 2.61923C9.61807 2.13748 9.62154 1.35291 9.1444 0.866852C8.66727 0.380787 7.89021 0.377287 7.40879 0.859034L4.47196 3.7979C3.36583 4.90476 2.46177 5.80941 1.82064 6.61545C1.15393 7.45364 0.671318 8.30441 0.542396 9.32565C0.485868 9.77343 0.485868 10.2266 0.542396 10.6744C0.671318 11.6956 1.15394 12.5464 1.82064 13.3845C2.46178 14.1906 3.36582 15.0952 4.47196 16.2021L7.40879 19.141Z" fill="#F0F0F0"/>
</svg>
