<svg width="20" height="20" viewBox="0 0 20 20" fill="none" xmlns="http://www.w3.org/2000/svg">
<g clip-path="url(#clip0_271_8551)">
<path d="M10 0.658325C10.4637 0.658394 10.9155 0.805931 11.29 1.07922C11.6645 1.35247 11.9424 1.73746 12.084 2.17883V2.17981L13.1904 5.6261L13.3018 5.97375H17.3096L17.4824 5.98059C17.8825 6.01281 18.2673 6.15442 18.5938 6.39172C18.967 6.66309 19.2447 7.04573 19.3877 7.4845C19.5306 7.92328 19.5314 8.39592 19.3896 8.83508C19.2479 9.27419 18.9711 9.65747 18.5986 9.92981L15.6318 12.0958L15.3398 12.3097L15.4512 12.6534L16.5781 16.1427C16.7204 16.5834 16.7195 17.0582 16.5752 17.4982C16.4308 17.9381 16.15 18.3212 15.7744 18.5919C15.3989 18.8624 14.9472 19.0072 14.4844 19.005C14.0213 19.0027 13.5703 18.8536 13.1973 18.5792L10.2959 16.4464L9.99902 16.2286L9.70312 16.4464L6.80273 18.5812L6.79785 18.5851C6.42828 18.8637 5.97847 19.0154 5.51562 19.0177C5.11046 19.0197 4.7143 18.907 4.37207 18.6945L4.22949 18.5978L4.21973 18.5909C3.84098 18.3246 3.55832 17.943 3.41406 17.5031C3.26984 17.0629 3.27128 16.5875 3.41895 16.1486H3.41992L3.4209 16.1427L4.54785 12.6534L4.65918 12.3097L4.36719 12.0958L2.6377 10.8331H2.63965L1.4043 9.92981C1.03177 9.65744 0.75408 9.27425 0.612305 8.83508C0.470579 8.39601 0.471378 7.9232 0.614258 7.4845C0.757175 7.04582 1.03507 6.66308 1.4082 6.39172C1.7348 6.15428 2.12023 6.01278 2.52051 5.98059L2.69336 5.97375H6.69727L6.80957 5.6261L7.91504 2.17981V2.17883C8.0566 1.7375 8.33462 1.35248 8.70898 1.07922C9.08366 0.805867 9.53621 0.658325 10 0.658325Z" stroke="#9D9D9D"/>
</g>
<defs>
<clipPath id="clip0_271_8551">
<rect width="20" height="20" fill="white"/>
</clipPath>
</defs>
</svg>
