<svg width="32" height="32" viewBox="0 0 32 32" fill="none" xmlns="http://www.w3.org/2000/svg">
<g clip-path="url(#clip0_86_6387)">
<path d="M21.7307 11.0507L23.6027 12.9507L15.8787 20.56C15.3627 21.076 14.684 21.3333 14.0027 21.3333C13.3213 21.3333 12.636 21.0733 12.1147 20.5533L8.40533 16.9587L10.2627 15.0427L13.9867 18.652L21.7307 11.0507ZM32 16C32 24.8227 24.8227 32 16 32C7.17733 32 0 24.8227 0 16C0 7.17733 7.17733 0 16 0C24.8227 0 32 7.17733 32 16ZM29.3333 16C29.3333 8.648 23.352 2.66667 16 2.66667C8.648 2.66667 2.66667 8.648 2.66667 16C2.66667 23.352 8.648 29.3333 16 29.3333C23.352 29.3333 29.3333 23.352 29.3333 16Z" fill="#9D9D9D"/>
</g>
<defs>
<clipPath id="clip0_86_6387">
<rect width="32" height="32" fill="white"/>
</clipPath>
</defs>
</svg>
