<svg width="32" height="32" viewBox="0 0 32 32" fill="none" xmlns="http://www.w3.org/2000/svg">
<g clip-path="url(#clip0_86_6409)">
<path d="M21.86 13.496L14.9373 9.70533C14.04 9.2 12.9733 9.20933 12.0867 9.728C11.1973 10.248 10.668 11.172 10.668 12.2013V19.8C10.668 20.8293 11.1973 21.7533 12.0867 22.2733C12.54 22.5387 13.0387 22.6693 13.536 22.6693C14.0133 22.6693 14.4907 22.548 14.924 22.304L21.8733 18.4987C22.7893 17.984 23.3347 17.0507 23.3347 16.0013C23.3347 14.952 22.7893 14.0187 21.8613 13.4973L21.86 13.496ZM20.5787 16.1667L13.6293 19.9733C13.604 19.9867 13.5267 20.0293 13.4333 19.972C13.3347 19.9147 13.3347 19.8293 13.3347 19.8013V12.2027C13.3347 12.1747 13.3347 12.0893 13.4333 12.032C13.4693 12.0107 13.5027 12.004 13.532 12.004C13.58 12.004 13.6187 12.0253 13.6427 12.0387L20.5653 15.8307C20.5907 15.8453 20.6667 15.888 20.6667 16.004C20.6667 16.12 20.5893 16.1627 20.5787 16.1707V16.1667ZM16 0C7.17733 0 0 7.17733 0 16C0 24.8227 7.17733 32 16 32C24.8227 32 32 24.8227 32 16C32 7.17733 24.8227 0 16 0ZM16 29.3333C8.648 29.3333 2.66667 23.352 2.66667 16C2.66667 8.648 8.648 2.66667 16 2.66667C23.352 2.66667 29.3333 8.648 29.3333 16C29.3333 23.352 23.352 29.3333 16 29.3333Z" fill="#279957"/>
</g>
<defs>
<clipPath id="clip0_86_6409">
<rect width="32" height="32" fill="white"/>
</clipPath>
</defs>
</svg>
