<svg width="32" height="32" viewBox="0 0 32 32" fill="none" xmlns="http://www.w3.org/2000/svg">
<g clip-path="url(#clip0_86_6404)">
<path d="M16 0C7.17733 0 0 7.17733 0 16C0 24.8227 7.17733 32 16 32C24.8227 32 32 24.8227 32 16C32 7.17733 24.8227 0 16 0ZM16 29.3333C8.648 29.3333 2.66667 23.352 2.66667 16C2.66667 8.648 8.648 2.66667 16 2.66667C23.352 2.66667 29.3333 8.648 29.3333 16C29.3333 23.352 23.352 29.3333 16 29.3333ZM12 10.6667H14.6667V21.3333H12V10.6667ZM17.3333 10.6667H20V21.3333H17.3333V10.6667Z" fill="#9D9D9D"/>
</g>
<defs>
<clipPath id="clip0_86_6404">
<rect width="32" height="32" fill="white"/>
</clipPath>
</defs>
</svg>
