<svg width="16" height="12" viewBox="0 0 16 12" fill="none" xmlns="http://www.w3.org/2000/svg">
<g clip-path="url(#clip0_151_12819)">
<path fill-rule="evenodd" clip-rule="evenodd" d="M6.09524 0H9.90476C11.5213 0 13.0717 0.632141 14.2147 1.75736C15.3578 2.88258 16 4.4087 16 6C16 7.5913 15.3578 9.11742 14.2147 10.2426C13.0717 11.3679 11.5213 12 9.90476 12H6.09524C4.47868 12 2.92833 11.3679 1.78525 10.2426C0.642175 9.11742 0 7.5913 0 6C0 4.4087 0.642175 2.88258 1.78525 1.75736C2.92833 0.632141 4.47868 0 6.09524 0ZM5.99238 1.45125C4.76683 1.45125 3.59147 1.93049 2.72487 2.78355C1.85828 3.6366 1.37143 4.7936 1.37143 6C1.37143 7.2064 1.85828 8.3634 2.72487 9.21645C3.59147 10.0695 4.76683 10.5487 5.99238 10.5487H9.89333C11.1189 10.5487 12.2942 10.0695 13.1608 9.21645C14.0274 8.3634 14.5143 7.2064 14.5143 6C14.5143 4.7936 14.0274 3.6366 13.1608 2.78355C12.2942 1.93049 11.1189 1.45125 9.89333 1.45125H5.99238ZM4.97905 3.17925H6.80838L9.24571 7.0605V3.18H11.0331V8.80125H9.28L6.75352 4.90275V8.8035H4.97524L4.97905 3.17925Z" fill="white"/>
</g>
<defs>
<clipPath id="clip0_151_12819">
<rect width="16" height="12" fill="white"/>
</clipPath>
</defs>
</svg>
