<svg width="20" height="20" viewBox="0 0 20 20" fill="none" xmlns="http://www.w3.org/2000/svg">
<g clip-path="url(#clip0_112_6947)">
<path d="M10 14.1667V17.5C10 17.9583 9.625 18.3333 9.16667 18.3333H5.83333C5.375 18.3333 5 17.9583 5 17.5C5 17.0417 5.375 16.6667 5.83333 16.6667H8.33333V15H4.16667C1.86667 15 0 13.1333 0 10.8333V5C0 2.7 1.86667 0.833332 4.16667 0.833332H14.1667C16.4667 0.833332 18.3333 2.7 18.3333 5C18.3333 5.45833 17.9583 5.83333 17.5 5.83333C17.0417 5.83333 16.6667 5.45833 16.6667 5C16.6667 3.625 15.5417 2.5 14.1667 2.5H4.16667C2.79167 2.5 1.66667 3.625 1.66667 5V10.8333C1.66667 12.2083 2.79167 13.3333 4.16667 13.3333H9.16667C9.625 13.3333 10 13.7083 10 14.1667ZM20 10.8333V16.6667C20 18.5083 18.5083 20 16.6667 20H15C13.1583 20 11.6667 18.5083 11.6667 16.6667V10.8333C11.6667 8.99167 13.1583 7.5 15 7.5H16.6667C18.5083 7.5 20 8.99167 20 10.8333ZM18.3333 10.8333C18.3333 9.91667 17.5833 9.16667 16.6667 9.16667H15C14.0833 9.16667 13.3333 9.91667 13.3333 10.8333V16.6667C13.3333 17.5833 14.0833 18.3333 15 18.3333H16.6667C17.5833 18.3333 18.3333 17.5833 18.3333 16.6667V10.8333Z" fill="#9D9D9D"/>
</g>
<defs>
<clipPath id="clip0_112_6947">
<rect width="20" height="20" fill="white"/>
</clipPath>
</defs>
</svg>
