<svg width="24" height="24" viewBox="0 0 24 24" fill="none" xmlns="http://www.w3.org/2000/svg">
<path d="M17.7098 9.87989L13.4098 5.58989C13.0351 5.21738 12.5282 5.0083 11.9998 5.0083C11.4714 5.0083 10.9645 5.21738 10.5898 5.58989L6.28982 9.87989C6.10356 10.0672 5.99902 10.3207 5.99902 10.5849C5.99902 10.8491 6.10356 11.1025 6.28982 11.2899C6.38278 11.3836 6.49338 11.458 6.61524 11.5088C6.7371 11.5595 6.8678 11.5857 6.99982 11.5857C7.13183 11.5857 7.26253 11.5595 7.38439 11.5088C7.50625 11.458 7.61685 11.3836 7.70982 11.2899L10.9998 7.99989V18.9999C10.9998 19.2651 11.1052 19.5195 11.2927 19.707C11.4802 19.8945 11.7346 19.9999 11.9998 19.9999C12.265 19.9999 12.5194 19.8945 12.7069 19.707C12.8945 19.5195 12.9998 19.2651 12.9998 18.9999V7.99989L16.2898 11.2899C16.4768 11.4782 16.7309 11.5845 16.9963 11.5854C17.2616 11.5864 17.5165 11.4819 17.7048 11.2949C17.8931 11.1079 17.9994 10.8538 18.0004 10.5884C18.0013 10.3231 17.8968 10.0682 17.7098 9.87989Z" fill="#F0F0F0"/>
</svg>
