<svg width="12" height="12" viewBox="0 0 12 12" fill="none" xmlns="http://www.w3.org/2000/svg">
<g clip-path="url(#clip0_59_4378)">
<path d="M2.673 1.01775L2.6565 1.03275C2.691 0.99675 2.739 0.95775 2.772 0.93675C3.711 0.32625 4.797 0 6 0C7.1265 0 8.181 0.31125 9.0825 0.852C9.147 0.891 9.3255 1.01325 9.417 1.12425C8.55 0.1665 5.99475 2.2215 5.99475 2.2215C5.112 1.5405 4.29975 1.077 3.6945 0.912C3.189 0.77325 2.8395 0.8895 2.673 1.01775ZM10.4018 1.92375C10.3755 1.89375 10.3463 1.86675 10.32 1.83675C10.1003 1.59525 9.83025 1.53675 9.5865 1.55325C9.36525 1.62225 8.3415 1.99125 7.08 3.18225C7.08 3.18225 8.5005 4.563 9.36975 5.9745C10.239 7.38675 10.7588 8.496 10.4393 10.0357C11.4455 8.93246 12.0023 7.49248 12 5.99925C12.0021 4.4876 11.4305 3.03131 10.4018 1.92375ZM8.235 6.5775C7.68139 5.95926 7.10938 5.35774 6.51975 4.77375C6.34635 4.60063 6.17134 4.42912 5.99475 4.25925L5.35875 4.89975C4.89825 5.36475 4.3005 5.97225 3.969 6.32625C3.37875 6.95625 1.68675 8.9355 1.5915 10.0448C1.5915 10.0448 1.215 9.16425 2.0415 7.13475C2.5815 5.808 4.21125 3.816 4.89225 3.16725C4.89225 3.16725 4.26975 2.4825 3.48975 2.00925L3.4845 2.00775C3.4845 2.00775 3.47625 2.001 3.462 1.99275C3.087 1.76775 2.67675 1.59525 2.28225 1.57275C2.03086 1.59723 1.79688 1.71209 1.62375 1.896C0.565331 3.06857 0.012007 4.61122 0.0838521 6.1892C0.155697 7.76718 0.846915 9.25317 2.00751 10.3247C3.16811 11.3962 4.70444 11.9669 6.28313 11.9128C7.86181 11.8587 9.35548 11.1842 10.44 10.0357C10.44 10.0342 10.3133 9.24375 9.50625 8.10825C9.3165 7.84275 8.62275 7.01325 8.23425 6.57825L8.235 6.5775Z" fill="#F0F0F0"/>
</g>
<defs>
<clipPath id="clip0_59_4378">
<rect width="12" height="12" fill="white"/>
</clipPath>
</defs>
</svg>
