<svg width="8" height="8" viewBox="0 0 8 8" fill="none" xmlns="http://www.w3.org/2000/svg">
<g clip-path="url(#clip0_224_10434)">
<path d="M7.43922 1.477L2.83289 6.083C2.80192 6.11409 2.76511 6.13877 2.72458 6.1556C2.68406 6.17243 2.6406 6.1811 2.59672 6.1811C2.55283 6.1811 2.50938 6.17243 2.46885 6.1556C2.42833 6.13877 2.39152 6.11409 2.36055 6.083L0.579219 4.3C0.548249 4.26891 0.511444 4.24424 0.470917 4.22741C0.430389 4.21057 0.386937 4.20191 0.343052 4.20191C0.299168 4.20191 0.255715 4.21057 0.215187 4.22741C0.17466 4.24424 0.137855 4.26891 0.106885 4.3C0.0757932 4.33097 0.0511224 4.36778 0.0342885 4.4083C0.0174546 4.44883 0.00878906 4.49228 0.00878906 4.53617C0.00878906 4.58005 0.0174546 4.62351 0.0342885 4.66403C0.0511224 4.70456 0.0757932 4.74137 0.106885 4.77234L1.88889 6.554C2.07687 6.74164 2.33162 6.84702 2.59722 6.84702C2.86282 6.84702 3.11757 6.74164 3.30555 6.554L7.91155 1.949C7.94259 1.91804 7.96722 1.88126 7.98403 1.84076C8.00083 1.80026 8.00948 1.75685 8.00948 1.713C8.00948 1.66916 8.00083 1.62574 7.98403 1.58525C7.96722 1.54475 7.94259 1.50797 7.91155 1.477C7.88058 1.44591 7.84378 1.42124 7.80325 1.40441C7.76272 1.38757 7.71927 1.37891 7.67538 1.37891C7.6315 1.37891 7.58805 1.38757 7.54752 1.40441C7.50699 1.42124 7.47019 1.44591 7.43922 1.477Z" fill="white"/>
</g>
<defs>
<clipPath id="clip0_224_10434">
<rect width="8" height="8" fill="white"/>
</clipPath>
</defs>
</svg>
