<svg width="16" height="16" viewBox="0 0 16 16" fill="none" xmlns="http://www.w3.org/2000/svg">
<g clip-path="url(#clip0_142_10659)">
<path d="M10.667 5.33333C10.5419 5.20835 10.3724 5.13814 10.1956 5.13814C10.0188 5.13814 9.84931 5.20835 9.72429 5.33333L8.00029 7.05733L6.27629 5.33333C6.15056 5.21189 5.98216 5.1447 5.80736 5.14622C5.63256 5.14774 5.46535 5.21785 5.34175 5.34145C5.21814 5.46506 5.14803 5.63227 5.14651 5.80707C5.14499 5.98186 5.21219 6.15026 5.33363 6.276L7.05763 8L5.33363 9.724C5.21219 9.84973 5.14499 10.0181 5.14651 10.1929C5.14803 10.3677 5.21814 10.5349 5.34175 10.6585C5.46535 10.7822 5.63256 10.8523 5.80736 10.8538C5.98216 10.8553 6.15056 10.7881 6.27629 10.6667L8.00029 8.94267L9.72429 10.6667C9.85003 10.7881 10.0184 10.8553 10.1932 10.8538C10.368 10.8523 10.5352 10.7822 10.6588 10.6585C10.7824 10.5349 10.8526 10.3677 10.8541 10.1929C10.8556 10.0181 10.7884 9.84973 10.667 9.724L8.94296 8L10.667 6.276C10.7919 6.15098 10.8621 5.98144 10.8621 5.80467C10.8621 5.62789 10.7919 5.45835 10.667 5.33333Z" fill="#E53935"/>
<path d="M8 0C6.41775 0 4.87104 0.469192 3.55544 1.34824C2.23985 2.22729 1.21447 3.47672 0.608967 4.93853C0.00346629 6.40034 -0.15496 8.00887 0.153721 9.56072C0.462403 11.1126 1.22433 12.538 2.34315 13.6569C3.46197 14.7757 4.88743 15.5376 6.43928 15.8463C7.99113 16.155 9.59966 15.9965 11.0615 15.391C12.5233 14.7855 13.7727 13.7602 14.6518 12.4446C15.5308 11.129 16 9.58225 16 8C15.9977 5.87897 15.1541 3.84547 13.6543 2.34568C12.1545 0.845886 10.121 0.00229405 8 0ZM8 14.6667C6.68146 14.6667 5.39253 14.2757 4.2962 13.5431C3.19987 12.8106 2.34539 11.7694 1.84081 10.5512C1.33622 9.33305 1.2042 7.99261 1.46144 6.6994C1.71867 5.40619 2.35361 4.21831 3.28596 3.28596C4.21831 2.35361 5.4062 1.71867 6.6994 1.46143C7.99261 1.2042 9.33305 1.33622 10.5512 1.8408C11.7694 2.34539 12.8106 3.19987 13.5431 4.2962C14.2757 5.39253 14.6667 6.68146 14.6667 8C14.6647 9.76752 13.9617 11.4621 12.7119 12.7119C11.4621 13.9617 9.76752 14.6647 8 14.6667Z" fill="#E53935"/>
</g>
<defs>
<clipPath id="clip0_142_10659">
<rect width="16" height="16" fill="white"/>
</clipPath>
</defs>
</svg>
